HIERARCHY
ROOT hip
{
	OFFSET 0.000000 0.000000 0.000000 
	CHANNELS 6 Xposition Yposition Zposition Xrotation Zrotation Yrotation
	JOINT abdomen
	{
		OFFSET 0.000000 3.402643 0.000000 
		CHANNELS 3 Xrotation Zrotation Yrotation
		JOINT chest
		{
			OFFSET 0.000000 8.438565 -0.680529 
			CHANNELS 3 Xrotation Zrotation Yrotation
			JOINT neck
			{
				OFFSET 0.000000 10.207942 -0.272212 
				CHANNELS 3 Xrotation Zrotation Yrotation
				JOINT head
				{
					OFFSET 0.000000 3.130431 0.000000 
					CHANNELS 3 Xrotation Zrotation Yrotation
					End Site
					{
						OFFSET 0.000000 3.130435 0.000000 
					}
				}
			}
			JOINT lCollar
			{
				OFFSET 3.470700 6.669187 -0.816635 
				CHANNELS 3 Yrotation Zrotation Xrotation
				JOINT lShldr
				{
					OFFSET 3.198488 0.000000 0.000000 
					CHANNELS 3 Zrotation Yrotation Xrotation
					JOINT lForeArm
					{
						OFFSET 10.139888 0.000000 0.000000 
						CHANNELS 3 Yrotation Zrotation Xrotation
						JOINT lHand
						{
							OFFSET 8.370511 0.000000 0.000000 
							CHANNELS 3 Zrotation Yrotation Xrotation
							End Site
							{
								OFFSET 4.083176 0.000000 0.000000 
							}
						}
					}
				}
			}
			JOINT rCollar
			{
				OFFSET -3.470700 6.669187 -0.816635 
				CHANNELS 3 Yrotation Zrotation Xrotation
				JOINT rShldr
				{
					OFFSET -3.198488 0.000000 0.000000 
					CHANNELS 3 Zrotation Yrotation Xrotation
					JOINT rForeArm
					{
						OFFSET -10.139888 0.000000 0.000000 
						CHANNELS 3 Yrotation Zrotation Xrotation
						JOINT rHand
						{
							OFFSET -8.370511 0.000000 0.000000 
							CHANNELS 3 Zrotation Yrotation Xrotation
							End Site
							{
								OFFSET -4.083176 0.000000 0.000000 
							}
						}
					}
				}
			}
		}
	}
	JOINT lThigh
	{
		OFFSET 5.308129 -1.633274 1.361059 
		CHANNELS 3 Xrotation Zrotation Yrotation
		JOINT lShin
		{
			OFFSET -2.041588 -20.007561 0.000000 
			CHANNELS 3 Xrotation Zrotation Yrotation
			JOINT lFoot
			{
				OFFSET 0.000000 -19.190928 -1.224953 
				CHANNELS 3 Xrotation Yrotation Zrotation
				End Site
				{
					OFFSET 0.000000 -2.449906 4.627600 
				}
			}
		}
	}
	JOINT rThigh
	{
		OFFSET -5.308129 -1.633274 1.361059 
		CHANNELS 3 Xrotation Zrotation Yrotation
		JOINT rShin
		{
			OFFSET 2.041588 -20.007561 0.000000 
			CHANNELS 3 Xrotation Zrotation Yrotation
			JOINT rFoot
			{
				OFFSET 0.000000 -19.190928 -1.224953 
				CHANNELS 3 Xrotation Yrotation Zrotation
				End Site
				{
					OFFSET 0.000000 -2.449906 4.627600 
				}
			}
		}
	}
}
MOTION
Frames: 19
Frame Time: 0.011111
11.001395 52.385536 6.556030 7.805719 17.857740 -47.165592 1.451706 -5.158154 1.226556 -30.872984 1.186588 0.459122 -10.390490 19.122568 16.102581 14.590899 -8.508541 36.738876 -4.964193 1.117081 0.544158 46.296944 -35.103806 -18.956629 -55.017128 8.670630 10.221192 8.524705 12.647240 -5.960340 10.412127 0.790339 -0.849798 -30.741337 9.962722 -17.247690 100.851311 -10.431646 40.825512 -8.534408 -12.637552 101.439316 -7.002690 -0.916427 -4.471622 -0.125795 -5.970428 -0.710800 -14.350631 23.550600 1.385761 -9.843182 -36.093460 8.933899 15.967048 5.872708 2.969260 -33.510666 -18.399218 -8.507075 
10.996695 52.403088 6.517802 7.883740 17.700640 -47.184322 1.600488 -4.987035 1.169379 -30.960943 1.214023 0.434388 -10.401991 19.270191 16.130735 14.661243 -8.624732 36.823433 -4.964193 1.117081 0.544158 46.262291 -35.081486 -19.052280 -55.060368 8.682405 10.251768 8.524705 12.647240 -6.243543 10.412127 0.790339 -0.849798 -30.725410 10.088704 -17.275272 100.851311 -10.431646 40.825512 -8.534408 -12.637552 101.585800 -7.029974 -0.663984 -4.430913 -0.126813 -5.970035 -0.691312 -14.603086 23.446508 1.474261 -9.862690 -35.858791 9.111501 16.081066 5.874710 2.969379 -32.783920 -19.722197 -8.658555 
10.989801 52.394623 6.484274 7.758563 17.728714 -47.330940 1.646731 -5.076627 1.326841 -31.048920 1.318758 0.478785 -9.930604 19.154945 16.168045 14.167151 -8.858895 36.745407 -4.964193 1.117081 0.544158 46.131218 -35.247868 -18.940071 -55.048386 8.673717 10.232668 8.524705 12.647240 -6.272840 10.412127 0.790339 -0.849798 -30.875385 10.097282 -17.142204 100.853073 -10.429808 40.834946 -8.534408 -12.637552 101.644386 -7.037674 -0.683115 -4.293432 -0.126812 -5.970037 -0.691312 -14.895483 23.318413 1.579437 -10.087206 -35.936649 9.151326 16.351553 5.873648 2.993956 -30.503592 -22.120365 -8.380322 
10.982282 52.381779 6.458580 7.596846 17.883385 -47.398178 1.596074 -5.310251 1.389673 -31.019646 1.360844 0.503800 -9.343787 18.908564 16.179218 13.249711 -8.934911 36.620747 -4.964193 1.117081 0.544158 46.156883 -35.426437 -19.092113 -54.912430 8.658740 10.186863 8.524705 12.647240 -6.370496 10.412127 0.790339 -0.849798 -30.900124 10.051120 -17.131159 100.873100 -10.436092 40.846649 -8.534408 -12.637552 101.624863 -7.027951 -0.858793 -4.254828 -0.126813 -5.970036 -0.691312 -15.011156 23.234873 1.625954 -10.278635 -36.174057 9.050613 16.520397 5.861795 3.046345 -28.680241 -23.539389 -7.925709 
10.981655 52.392120 6.414401 7.554656 17.947968 -47.385906 1.654907 -5.476256 1.374324 -31.048967 1.381677 0.510418 -9.526639 18.798088 16.196119 13.399846 -8.634830 36.679375 -4.964193 1.117081 0.544158 46.309082 -35.477531 -18.930878 -54.837761 8.644220 10.154684 8.524705 12.647240 -5.921278 10.412127 0.790339 -0.849798 -30.819422 9.942781 -17.147821 100.947784 -10.449633 40.873829 -8.534408 -12.637552 101.517433 -7.067612 -0.927535 -4.280779 -0.126817 -5.960272 -0.691500 -14.997661 23.235701 1.609856 -10.448300 -36.209293 9.164020 16.709032 5.856186 3.053626 -27.369896 -24.281206 -7.465067 
10.980715 52.392746 6.376485 7.472756 18.001017 -47.421768 1.742718 -5.635526 1.375916 -31.078297 1.413405 0.525512 -10.285217 19.044573 16.087168 14.605491 -8.619290 36.665634 -4.964193 1.117081 0.544158 46.380489 -35.424244 -18.526747 -54.859470 8.649899 10.164315 8.524705 12.647240 -5.296278 10.412127 0.790339 -0.849798 -30.783939 9.849855 -17.109850 101.116257 -10.485874 40.957924 -8.534408 -12.637552 101.429543 -7.025167 -1.043493 -4.264454 -0.126813 -5.970035 -0.691312 -15.022136 23.321320 1.631959 -10.563456 -36.284401 9.217862 16.813272 5.852124 3.081273 -27.675833 -23.554407 -7.425273 
10.974762 52.380215 6.353924 7.323157 18.161282 -47.499146 1.735295 -5.796645 1.253713 -31.009951 1.409226 0.498117 -10.441799 19.460163 15.947991 14.846880 -9.194880 36.456665 -4.964193 1.117081 0.544158 46.382565 -35.247818 -18.334021 -54.901661 8.655607 10.175696 8.524705 12.647240 -5.198621 10.412127 0.790339 -0.849798 -30.699242 9.996927 -17.204855 101.156311 -10.497436 40.971588 -8.534408 -12.637552 101.400253 -6.958999 -1.298227 -4.240423 -0.126819 -5.960269 -0.691500 -14.804534 23.493990 1.565765 -10.680498 -36.518902 9.097630 16.854225 5.852474 3.094554 -28.451429 -22.746731 -7.569683 
10.960975 52.379589 6.335751 7.267938 18.210178 -47.620113 1.677740 -5.788503 1.198229 -30.980648 1.396919 0.480627 -9.740681 19.444214 16.030630 13.750644 -9.444825 36.469528 -4.964193 1.117081 0.544158 46.333858 -35.106682 -18.183001 -54.976154 8.670634 10.217672 8.524705 12.647240 -5.374403 10.412127 0.790339 -0.849798 -30.631449 10.234648 -17.195911 101.072853 -10.478634 40.933369 -8.534408 -12.637552 101.390480 -6.929059 -1.356387 -4.145236 -0.126812 -5.970036 -0.691312 -14.512334 23.582706 1.453093 -10.767426 -36.614532 8.914289 16.864504 5.852654 3.095456 -27.715691 -23.333616 -7.381759 
10.949694 52.395248 6.302223 7.380987 18.082218 -47.667770 1.687993 -5.544168 1.215877 -31.088160 1.425696 0.464726 -9.197267 19.061380 16.266870 13.064613 -9.001368 36.788170 -4.964193 1.117081 0.544158 46.308247 -35.006588 -17.839191 -55.080853 8.682376 10.253540 8.524705 12.647240 -5.266981 10.412127 0.790339 -0.849798 -30.661427 10.444979 -17.015631 100.999458 -10.462357 40.897911 -8.534408 -12.637552 101.361191 -6.955391 -1.121497 -4.045455 -0.126811 -5.970036 -0.691312 -14.413062 23.576113 1.423460 -10.739840 -36.412373 8.827456 16.854225 5.852474 3.094554 -28.383556 -22.516825 -7.466849 
10.948753 52.410294 6.265250 7.515242 17.989162 -47.615978 1.700320 -5.318056 1.146514 -31.185974 1.480985 0.425949 -8.995728 18.763086 16.445774 12.902094 -8.569106 37.082836 -4.964193 1.117081 0.544158 46.245895 -34.982113 -17.926676 -55.091618 8.685461 10.263256 8.524705 12.647240 -5.462293 10.412127 0.790339 -0.849798 -30.667242 10.770458 -16.942345 100.916199 -10.443063 40.859688 -8.534408 -12.637552 101.273300 -7.055610 -0.907402 -4.047288 -0.126812 -5.970034 -0.691312 -14.551718 23.573933 1.478771 -10.671023 -36.206032 8.811211 16.781746 5.854488 3.069227 -28.948689 -21.919744 -7.539762 
10.942174 52.408730 6.256475 7.512548 17.961374 -47.629208 1.720480 -5.224174 1.094779 -31.078423 1.409948 0.417702 -9.086718 18.920330 16.441963 13.043003 -8.717876 37.109024 -4.964193 1.117081 0.544158 46.250397 -34.943226 -18.235004 -55.038658 8.676834 10.240613 8.524705 12.647240 -5.843153 10.412127 0.790339 -0.849798 -30.482513 10.964340 -17.071474 100.936241 -10.449302 40.871395 -8.534408 -12.637552 101.185410 -7.035358 -0.838785 -4.019734 -0.126813 -5.970036 -0.691312 -14.801058 23.440575 1.569497 -10.562126 -36.193710 8.663081 16.709032 5.856190 3.053626 -27.052336 -23.341526 -7.049750 
10.933713 52.407475 6.232348 7.514025 17.819534 -47.598312 1.888254 -5.027960 0.986662 -30.961021 1.248099 0.390909 -9.905119 19.538229 16.265615 14.353519 -9.200887 37.009087 -4.964193 1.117081 0.544158 46.387295 -34.806744 -18.165215 -55.007404 8.673742 10.229139 8.524705 12.647240 -5.843153 10.412127 0.790339 -0.849798 -30.259493 11.015874 -17.232853 101.054535 -10.470618 40.931087 -8.534408 -12.637552 101.302589 -6.969163 -0.693192 -4.035072 -0.126811 -5.970035 -0.691312 -14.676048 23.380150 1.518092 -10.320422 -36.071091 8.614968 16.675423 5.864617 3.041363 -29.166859 -20.763662 -7.273788 
10.935907 52.405907 6.174067 7.637694 17.585407 -47.468502 2.104335 -4.710703 0.935949 -31.029318 1.146884 0.362511 -10.390057 19.867233 16.198370 15.304760 -9.519367 36.980324 -4.964193 1.117081 0.544158 46.417477 -34.867958 -18.264914 -54.943684 8.661894 10.198312 8.524705 12.647240 -5.891981 10.412127 0.790339 -0.849798 -30.235355 10.983418 -17.317343 101.189789 -10.501819 40.993374 -8.534408 -12.637552 101.761581 -7.033685 -0.321957 -4.079332 -0.125794 -5.970429 -0.710800 -15.066135 23.174028 1.645781 -9.978498 -35.748123 8.676567 16.509413 5.864468 3.036085 -32.442680 -16.460588 -7.166219 
10.931520 52.380524 6.126752 7.791259 17.427786 -47.457386 2.109289 -4.410325 1.182757 -31.097578 1.085467 0.417988 -10.099001 19.590466 16.241776 14.999908 -9.346567 36.962418 -4.964193 1.117081 0.544158 46.342907 -35.028904 -18.256962 -54.954449 8.665016 10.208013 8.524705 12.647240 -5.823622 10.412127 0.790339 -0.849798 -30.384027 10.775187 -17.242952 101.338722 -10.530550 41.067501 -8.534408 -12.637552 102.122902 -7.313626 0.234284 -3.972154 -0.126150 -5.950519 -0.691679 -17.955381 21.735277 2.579222 -9.810036 -35.489380 8.706792 16.361597 5.873759 3.004577 -32.136848 -16.914660 -7.201182 
10.917107 52.409351 6.119858 7.888258 17.320362 -47.566544 2.016815 -4.177058 1.431971 -31.077976 1.071917 0.469209 -9.824583 19.049517 16.306425 14.595793 -8.740406 36.983215 -4.964193 1.117081 0.544158 46.260754 -34.934227 -17.736418 -55.091618 8.685461 10.263256 8.524705 12.647240 -5.345106 10.412127 0.790339 -0.849798 -30.505161 10.711245 -17.107798 101.432533 -10.551131 41.104908 -8.534408 -12.637552 102.122902 -7.160138 0.204975 -3.885346 -0.125148 -5.950907 -0.711168 -15.440785 23.026749 1.771462 -9.771100 -35.314667 8.671343 16.271141 5.863483 3.014888 -29.453978 -20.114935 -7.184985 
10.915540 52.427216 6.091658 7.898882 17.304243 -47.537502 2.054635 -4.156005 1.488585 -31.058414 1.064449 0.490151 -9.699035 18.681509 16.296703 14.178705 -8.341628 36.878403 -4.964193 1.117081 0.544158 46.236195 -34.824406 -17.187508 -55.219246 8.708014 10.316879 8.524705 12.647240 -4.661512 10.412127 0.790339 -0.849798 -30.548410 10.667328 -17.103624 101.390701 -10.542514 41.091572 -8.534408 -12.637552 102.142441 -7.133746 0.185356 -3.926309 -0.126158 -5.950516 -0.691679 -14.624567 23.348326 1.479070 -9.764790 -35.282158 8.476676 16.282074 5.863608 2.996277 -26.849274 -22.627344 -6.735700 
10.922120 52.432537 6.042465 7.777315 17.467281 -47.383209 2.116838 -4.420553 1.325601 -31.068308 1.157875 0.448962 -9.493213 18.614138 16.262152 13.809638 -8.503122 36.758148 -4.964193 1.117081 0.544158 46.300289 -34.672447 -16.746710 -55.281738 8.713894 10.339953 8.524705 12.647240 -4.046278 10.412127 0.790339 -0.849798 -30.605324 10.664453 -17.161203 101.275009 -10.517717 41.031258 -8.534408 -12.637552 102.113136 -7.191926 -0.028949 -4.116961 -0.126812 -5.970036 -0.691312 -14.598469 23.397491 1.465970 -9.782137 -35.492382 8.087970 16.292654 5.863896 2.987459 -24.542986 -24.654781 -6.152617 
10.921807 52.426277 6.002043 7.612626 17.695240 -47.349751 2.103582 -4.699871 1.069269 -31.117481 1.376350 0.381579 -9.357439 18.629623 16.378653 13.911968 -8.713793 36.932453 -4.964193 1.117081 0.544158 46.286766 -34.465397 -16.554863 -55.249264 8.705397 10.320482 8.524705 12.647240 -3.909559 10.412127 0.790339 -0.849798 -30.682146 10.949437 -17.204269 101.146339 -10.494705 40.970612 -8.534408 -12.637552 101.888535 -7.218700 -0.321488 -4.192166 -0.126815 -5.970036 -0.691312 -14.664713 23.409002 1.499229 -9.976790 -35.773785 7.906143 16.384916 5.865472 3.015010 -23.225033 -25.461779 -5.685380 
10.913660 52.421890 5.979795 7.563824 17.681694 -47.459190 2.163205 -4.673425 1.083954 -31.156782 1.513486 0.373421 -9.355232 18.545450 16.454870 14.020910 -8.649033 37.070045 -4.964193 1.117081 0.544158 46.159996 -34.514408 -16.923243 -55.144581 8.694027 10.284455 8.524705 12.647240 -4.222059 10.412127 0.790339 -0.849798 -30.744553 11.124420 -17.167576 101.084587 -10.479512 40.945549 -8.534408 -12.637552 101.829941 -7.162861 -0.321650 -4.098755 -0.126813 -5.970035 -0.691312 -14.645328 23.432230 1.507591 -10.064713 -35.775219 7.818356 16.472105 5.852335 3.031022 -22.485579 -25.604956 -5.372118 
